<svg width="1208" height="159" viewBox="0 0 1208 159" fill="none" xmlns="http://www.w3.org/2000/svg">
<g filter="url(#filter0_d)">
<path fill-rule="evenodd" clip-rule="evenodd" d="M1204 151L1137 131.426C1071 111.852 937 72.7037 804 61.5185C671 50.3333 537 67.1111 404 83.8889C271 100.667 137 117.444 71 125.833L4 134.222V3.09944e-06H71C137 3.09944e-06 271 3.09944e-06 404 3.09944e-06C537 3.09944e-06 671 3.09944e-06 804 3.09944e-06C937 3.09944e-06 1071 3.09944e-06 1137 3.09944e-06H1204V151Z" fill="white"/>
<path fill-rule="evenodd" clip-rule="evenodd" d="M1204 151L1137 131.426C1071 111.852 937 72.7037 804 61.5185C671 50.3333 537 67.1111 404 83.8889C271 100.667 137 117.444 71 125.833L4 134.222V3.09944e-06H71C137 3.09944e-06 271 3.09944e-06 404 3.09944e-06C537 3.09944e-06 671 3.09944e-06 804 3.09944e-06C937 3.09944e-06 1071 3.09944e-06 1137 3.09944e-06H1204V151Z" stroke="black"/>
</g>
<defs>
<filter id="filter0_d" x="0" y="0" width="1208" height="159" filterUnits="userSpaceOnUse" color-interpolation-filters="sRGB">
<feFlood flood-opacity="0" result="BackgroundImageFix"/>
<feColorMatrix in="SourceAlpha" type="matrix" values="0 0 0 0 0 0 0 0 0 0 0 0 0 0 0 0 0 0 127 0"/>
<feOffset dy="4"/>
<feGaussianBlur stdDeviation="2"/>
<feColorMatrix type="matrix" values="0 0 0 0 0 0 0 0 0 0 0 0 0 0 0 0 0 0 0.25 0"/>
<feBlend mode="normal" in2="BackgroundImageFix" result="effect1_dropShadow"/>
<feBlend mode="normal" in="SourceGraphic" in2="effect1_dropShadow" result="shape"/>
</filter>
</defs>
</svg>
